# Blender 3.5.1
# www.blender.org
mtllib 3DArrow.mtl
o pointer-cursor
v 0.122471 1.733560 0.008292
v 0.122471 -0.200962 0.712401
v 0.122471 -0.196758 -0.712621
v 0.122471 -0.652779 0.158154
v 0.122471 -0.015569 0.161880
v 0.122471 -0.013694 -0.164312
v 0.122471 -0.653797 -0.163794
v -0.122471 -0.196758 -0.712621
v -0.122472 1.733560 0.008292
v -0.122471 -0.200962 0.712401
v -0.122471 -0.015569 0.161880
v -0.122471 -0.013694 -0.164312
v -0.122471 -0.653797 -0.163794
v -0.122471 -0.652779 0.158154
vn -1.0000 -0.0000 -0.0000
vn 1.0000 -0.0000 -0.0000
vn -0.0000 -0.3499 0.9368
vn -0.0000 0.0058 -1.0000
vn -0.0000 1.0000 -0.0032
vn -0.0000 0.9477 0.3191
vn -0.0000 0.9485 -0.3167
vn -0.0000 -0.3420 -0.9397
vn -0.0000 0.0008 1.0000
vt 0.000000 0.000000
vt 1.000000 0.000000
vt 0.000000 1.000000
vt 1.000000 0.793606
vt 1.000000 0.793606
vt 0.775910 1.000000
vt 0.775910 1.000000
vt 0.000000 1.000000
vt 0.000000 0.000000
vt 1.000000 0.000000
vt 1.000000 0.793606
vt 0.775910 1.000000
vt 0.775910 1.000000
vt 1.000000 0.793606
s 0
usemtl Material.001
f 6/6/1 7/7/1 4/4/1 5/5/1
f 3/3/1 6/6/1 1/1/1
f 6/6/1 5/5/1 1/1/1
f 5/5/1 2/2/1 1/1/1
f 12/12/2 11/11/2 14/14/2 13/13/2
f 8/8/2 9/9/2 12/12/2
f 12/12/2 9/9/2 11/11/2
f 11/11/2 9/9/2 10/10/2
f 3/3/3 1/1/3 9/9/3 8/8/3
f 5/5/4 4/4/4 14/14/4 11/11/4
f 4/4/5 7/7/5 13/13/5 14/14/5
f 2/2/6 5/5/6 11/11/6 10/10/6
f 6/6/7 3/3/7 8/8/7 12/12/7
f 1/1/8 2/2/8 10/10/8 9/9/8
f 7/7/9 6/6/9 12/12/9 13/13/9
